<?xml version="1.0" encoding="UTF-8" standalone="no"?>
<!-- Created with Inkscape (http://www.inkscape.org/) -->

<svg
   width="160.84137mm"
   height="79.849281mm"
   viewBox="0 0 160.84137 79.849282"
   version="1.1"
   id="svg5"
   xmlns="http://www.w3.org/2000/svg"
   xmlns:svg="http://www.w3.org/2000/svg">
  <defs
     id="defs2">
    <rect
       x="96.721962"
       y="179.82111"
       width="374.62732"
       height="58.578087"
       id="rect2272" />
    <linearGradient
       id="a"
       x1="104.73"
       x2="494.51999"
       y1="335.72"
       y2="895.84003"
       gradientUnits="userSpaceOnUse"
       gradientTransform="matrix(0.26458333,0,0,0.26458333,30.671479,-56.197473)">
      <stop
         stop-color="#e00"
         offset="0"
         id="stop824" />
      <stop
         stop-color="#9a0000"
         offset="1"
         id="stop826" />
    </linearGradient>
  </defs>
  <g
     id="layer1"
     transform="translate(48.898868,25.395992)">
    <g
       id="layer1-2"
       transform="translate(-61.958964,-29.53389)">
      <path
         d="m 164.40103,4.1389677 c 1.78322,9.8999903 9.50043,30.9243703 9.50043,30.9243703 -3.35154,-3.65627 -6.93192,-5.38029 -9.33294,-6.18344 -1.48219,16.09891 -18.78882,53.454982 -51.01645,55.107282 11.59888,-9.87557 -2.43842,-10.76176 -19.648918,-10.53541 28.643068,-1.61371 60.568098,-16.456302 65.378478,-44.970712 -2.34527,0.39735 -6.20537,1.36782 -10.90018,3.7674 0,0 14.35846,-18.70185 16.01909,-28.1105603 z"
         fill="url(#a)"
         id="path831"
         style="fill:#77b5d9;fill-opacity:1;stroke-width:0.119127" />
      <g
         aria-label="Füge Songs hinzu"
         transform="matrix(0.3773437,0,0,0.3773437,-24.683118,-36.823957)"
         id="text2270"
         style="font-size:40px;line-height:1.25;white-space:pre;shape-inside:url(#rect2272);fill:#77b5d9">
        <path
           d="m 115.70703,203.75493 h -11.93359 v 12.5586 h -3.75 v -28.4375 h 17.61719 v 3.08593 h -13.86719 v 9.72657 h 11.93359 z"
           style="font-family:Roboto;-inkscape-font-specification:Roboto"
           id="path2189" />
        <path
           d="m 134.18359,214.22368 q -2.10937,2.48047 -6.1914,2.48047 -3.37891,0 -5.15625,-1.95312 -1.75781,-1.97266 -1.77735,-5.82032 v -13.75 h 3.61329 v 13.65235 q 0,4.80468 3.90624,4.80468 4.14063,0 5.50782,-3.08593 v -15.3711 h 3.61328 v 21.13282 h -3.4375 z m -10.99609,-24.6875 q 0,-0.8789 0.52734,-1.46484 0.54688,-0.60547 1.60157,-0.60547 1.05468,0 1.60156,0.60547 0.54687,0.58594 0.54687,1.46484 0,0.87891 -0.54687,1.46485 -0.54688,0.58593 -1.60156,0.58593 -1.05469,0 -1.60157,-0.58593 -0.52734,-0.58594 -0.52734,-1.46485 z m 8.39844,0.0391 q 0,-0.8789 0.52734,-1.48437 0.54688,-0.60547 1.60156,-0.60547 1.05469,0 1.60157,0.60547 0.54687,0.60547 0.54687,1.48437 0,0.87891 -0.54687,1.46485 -0.54688,0.58594 -1.60157,0.58594 -1.05468,0 -1.60156,-0.58594 -0.52734,-0.58594 -0.52734,-1.46485 z"
           style="font-family:Roboto;-inkscape-font-specification:Roboto"
           id="path2191" />
        <path
           d="m 142.32812,205.57134 q 0,-4.94141 2.28516,-7.85156 2.28516,-2.92969 6.05469,-2.92969 3.86719,0 6.03515,2.73437 l 0.17579,-2.34375 h 3.30078 v 20.625 q 0,4.10157 -2.44141,6.46485 -2.42187,2.36328 -6.52344,2.36328 -2.28515,0 -4.47265,-0.97656 -2.1875,-0.97657 -3.33985,-2.67579 l 1.875,-2.16796 q 2.32422,2.87109 5.6836,2.87109 2.63672,0 4.10156,-1.48438 1.48437,-1.48437 1.48437,-4.17968 v -1.81641 q -2.16796,2.5 -5.91796,2.5 -3.71094,0 -6.01563,-2.98828 -2.28516,-2.98828 -2.28516,-8.14453 z m 3.63282,0.41015 q 0,3.57422 1.46484,5.625 1.46484,2.03125 4.10156,2.03125 3.41797,0 5.01953,-3.10546 v -9.64844 q -1.66015,-3.02735 -4.98046,-3.02735 -2.63672,0 -4.1211,2.05079 -1.48437,2.05078 -1.48437,6.07421 z"
           style="font-family:Roboto;-inkscape-font-specification:Roboto"
           id="path2193" />
        <path
           d="m 174.39844,216.70415 q -4.29688,0 -6.99219,-2.8125 -2.69531,-2.83203 -2.69531,-7.55859 v -0.66407 q 0,-3.14453 1.1914,-5.60546 1.21094,-2.48047 3.35938,-3.86719 2.16797,-1.40625 4.6875,-1.40625 4.12109,0 6.40625,2.71484 2.28515,2.71485 2.28515,7.77344 v 1.50391 h -14.3164 q 0.0781,3.125 1.8164,5.05859 1.75782,1.91406 4.45313,1.91406 1.91406,0 3.24219,-0.78125 1.32812,-0.78125 2.32422,-2.07031 l 2.20703,1.71875 q -2.65625,4.08203 -7.96875,4.08203 z m -0.44922,-18.94531 q -2.1875,0 -3.67188,1.60156 -1.48437,1.58203 -1.83593,4.45313 h 10.58593 v -0.27344 q -0.15625,-2.75391 -1.48437,-4.25781 -1.32813,-1.52344 -3.59375,-1.52344 z"
           style="font-family:Roboto;-inkscape-font-specification:Roboto"
           id="path2195" />
        <path
           d="m 205.66797,203.63774 q -4.82422,-1.38671 -7.03125,-3.39843 -2.1875,-2.03125 -2.1875,-5 0,-3.35938 2.67578,-5.54688 2.69531,-2.20703 6.99219,-2.20703 2.92968,0 5.21484,1.13281 2.30469,1.13282 3.55469,3.125 1.26953,1.99219 1.26953,4.35547 h -3.76953 q 0,-2.57812 -1.64063,-4.04297 -1.64062,-1.48437 -4.6289,-1.48437 -2.77344,0 -4.33594,1.23047 -1.54297,1.21093 -1.54297,3.3789 0,1.73828 1.46484,2.94922 1.48438,1.19141 5.01954,2.1875 3.55468,0.9961 5.54687,2.20703 2.01172,1.19141 2.96875,2.79297 0.97656,1.60156 0.97656,3.76953 0,3.45703 -2.69531,5.54688 -2.69531,2.07031 -7.20703,2.07031 -2.92969,0 -5.46875,-1.11328 -2.53906,-1.13281 -3.92578,-3.08594 -1.36719,-1.95312 -1.36719,-4.43359 h 3.76953 q 0,2.57812 1.89453,4.08203 1.91407,1.48437 5.09766,1.48437 2.96875,0 4.55078,-1.21093 1.58203,-1.21094 1.58203,-3.30078 0,-2.08985 -1.46484,-3.22266 -1.46485,-1.15234 -5.3125,-2.26563 z"
           style="font-family:Roboto;-inkscape-font-specification:Roboto"
           id="path2197" />
        <path
           d="m 219.49609,205.55181 q 0,-3.10547 1.21094,-5.58594 1.23047,-2.48047 3.39844,-3.82813 2.1875,-1.34765 4.98047,-1.34765 4.3164,0 6.97265,2.98828 2.67578,2.98828 2.67578,7.94922 v 0.2539 q 0,3.08594 -1.1914,5.54688 -1.17188,2.44141 -3.37891,3.80859 -2.1875,1.36719 -5.03906,1.36719 -4.29688,0 -6.97266,-2.98828 -2.65625,-2.98828 -2.65625,-7.91016 z m 3.63282,0.42968 q 0,3.51563 1.62109,5.64454 1.64062,2.1289 4.375,2.1289 2.75391,0 4.375,-2.14844 1.62109,-2.16796 1.62109,-6.05468 0,-3.47657 -1.66015,-5.625 -1.64063,-2.16797 -4.375,-2.16797 -2.67578,0 -4.31641,2.1289 -1.64062,2.12891 -1.64062,6.09375 z"
           style="font-family:Roboto;-inkscape-font-specification:Roboto"
           id="path2199" />
        <path
           d="m 246.68359,195.18071 0.11719,2.65625 q 2.42188,-3.04687 6.32813,-3.04687 6.69921,0 6.75781,7.55859 v 13.96485 h -3.61328 v -13.98438 q -0.0195,-2.28516 -1.05469,-3.37891 -1.01563,-1.09375 -3.18359,-1.09375 -1.75782,0 -3.08594,0.9375 -1.32813,0.9375 -2.07031,2.46094 v 15.0586 h -3.61329 v -21.13282 z"
           style="font-family:Roboto;-inkscape-font-specification:Roboto"
           id="path2201" />
        <path
           d="m 264.47656,205.57134 q 0,-4.94141 2.28516,-7.85156 2.28515,-2.92969 6.05469,-2.92969 3.86718,0 6.03515,2.73437 l 0.17578,-2.34375 h 3.30078 v 20.625 q 0,4.10157 -2.4414,6.46485 -2.42188,2.36328 -6.52344,2.36328 -2.28516,0 -4.47266,-0.97656 -2.1875,-0.97657 -3.33984,-2.67579 l 1.875,-2.16796 q 2.32422,2.87109 5.68359,2.87109 2.63672,0 4.10157,-1.48438 1.48437,-1.48437 1.48437,-4.17968 v -1.81641 q -2.16797,2.5 -5.91797,2.5 -3.71093,0 -6.01562,-2.98828 -2.28516,-2.98828 -2.28516,-8.14453 z m 3.63281,0.41015 q 0,3.57422 1.46485,5.625 1.46484,2.03125 4.10156,2.03125 3.41797,0 5.01953,-3.10546 v -9.64844 q -1.66015,-3.02735 -4.98047,-3.02735 -2.63672,0 -4.12109,2.05079 -1.48438,2.05078 -1.48438,6.07421 z"
           style="font-family:Roboto;-inkscape-font-specification:Roboto"
           id="path2203" />
        <path
           d="m 300.08203,210.70806 q 0,-1.46485 -1.11328,-2.26563 -1.09375,-0.82031 -3.84766,-1.40625 -2.73437,-0.58594 -4.35547,-1.40625 -1.60156,-0.82031 -2.38281,-1.95312 -0.76172,-1.13282 -0.76172,-2.69532 0,-2.59765 2.1875,-4.39453 2.20703,-1.79687 5.625,-1.79687 3.59375,0 5.82032,1.85547 2.24609,1.85547 2.24609,4.74609 h -3.63281 q 0,-1.48437 -1.26953,-2.55859 -1.25,-1.07422 -3.16407,-1.07422 -1.97265,0 -3.08593,0.85937 -1.11329,0.85938 -1.11329,2.2461 0,1.30859 1.03516,1.97265 1.03516,0.66407 3.73047,1.26953 2.71484,0.60547 4.39453,1.44532 1.67969,0.83984 2.48047,2.03125 0.82031,1.17187 0.82031,2.87109 0,2.83203 -2.26562,4.55078 -2.26563,1.69922 -5.87891,1.69922 -2.53906,0 -4.49219,-0.89844 -1.95312,-0.89843 -3.0664,-2.5 -1.09375,-1.62109 -1.09375,-3.49609 h 3.61328 q 0.0976,1.81641 1.44531,2.89062 1.36719,1.05469 3.59375,1.05469 2.05078,0 3.28125,-0.82031 1.25,-0.83984 1.25,-2.22656 z"
           style="font-family:Roboto;-inkscape-font-specification:Roboto"
           id="path2205" />
        <path
           d="m 321.91797,197.73931 q 2.40234,-2.94922 6.25,-2.94922 6.69922,0 6.75781,7.55859 v 13.96485 h -3.61328 v -13.98438 q -0.0195,-2.28516 -1.05469,-3.37891 -1.01562,-1.09375 -3.18359,-1.09375 -1.75781,0 -3.08594,0.9375 -1.32812,0.9375 -2.07031,2.46094 v 15.0586 h -3.61328 v -30 h 3.61328 z"
           style="font-family:Roboto;-inkscape-font-specification:Roboto"
           id="path2207" />
        <path
           d="m 344.26172,216.31353 h -3.61328 v -21.13282 h 3.61328 z m -3.90625,-26.73829 q 0,-0.8789 0.52734,-1.48437 0.54688,-0.60547 1.60156,-0.60547 1.05469,0 1.60157,0.60547 0.54687,0.60547 0.54687,1.48437 0,0.87891 -0.54687,1.46485 -0.54688,0.58594 -1.60157,0.58594 -1.05468,0 -1.60156,-0.58594 -0.52734,-0.58594 -0.52734,-1.46485 z"
           style="font-family:Roboto;-inkscape-font-specification:Roboto"
           id="path2209" />
        <path
           d="m 353.46094,195.18071 0.11718,2.65625 q 2.42188,-3.04687 6.32813,-3.04687 6.69922,0 6.75781,7.55859 v 13.96485 h -3.61328 v -13.98438 q -0.0195,-2.28516 -1.05469,-3.37891 -1.01562,-1.09375 -3.18359,-1.09375 -1.75781,0 -3.08594,0.9375 -1.32812,0.9375 -2.07031,2.46094 v 15.0586 h -3.61328 v -21.13282 z"
           style="font-family:Roboto;-inkscape-font-specification:Roboto"
           id="path2211" />
        <path
           d="M 375.51172,213.36431 H 387.875 v 2.94922 h -16.77734 v -2.65625 l 11.66015,-15.48829 h -11.48437 v -2.98828 h 16.01562 v 2.5586 z"
           style="font-family:Roboto;-inkscape-font-specification:Roboto"
           id="path2213" />
        <path
           d="m 404.98437,214.22368 q -2.10937,2.48047 -6.1914,2.48047 -3.37891,0 -5.15625,-1.95312 -1.75781,-1.97266 -1.77735,-5.82032 v -13.75 h 3.61329 v 13.65235 q 0,4.80468 3.90625,4.80468 4.14062,0 5.50781,-3.08593 v -15.3711 H 408.5 v 21.13282 h -3.4375 z"
           style="font-family:Roboto;-inkscape-font-specification:Roboto"
           id="path2215" />
      </g>
    </g>
  </g>
</svg>
