<?xml version="1.0" encoding="UTF-8" standalone="no"?>
<!-- Created with Inkscape (http://www.inkscape.org/) -->

<svg
   width="63.698437mm"
   height="69.019051mm"
   viewBox="0 0 63.698437 69.019051"
   version="1.1"
   id="svg5"
   xmlns="http://www.w3.org/2000/svg"
   xmlns:svg="http://www.w3.org/2000/svg">
  <defs
     id="defs2" />
  <g
     id="layer1"
     transform="translate(-1.7023317,-1.7852807)">
    <g
       style="font-style:normal;font-weight:normal;font-size:12px;font-family:Dialog;color-interpolation:auto;fill:#ffffff;fill-opacity:1;stroke:#000000;stroke-width:1;stroke-linecap:square;stroke-linejoin:miter;stroke-miterlimit:10;stroke-dasharray:none;stroke-dashoffset:0;stroke-opacity:1;color-rendering:auto;image-rendering:auto;shape-rendering:auto;text-rendering:auto"
       id="g839"
       transform="matrix(0.26458333,0,0,0.26458333,-1.3486316,-38.435513)">
      <path
         d="m 252.2812,222.1875 q -4.9218,0 -12.7343,-3.0937 Q 231.75,216 228.6562,216 h -0.7031 q 2.5313,3.0938 4.3594,8.4375 -4.9219,-3.7969 -9.9844,-7.7344 -7.4531,-5.4843 -10.125,-5.4843 h -2.6719 l -0.4218,0.5624 q 0,2.8126 2.25,5.9063 h -0.7032 q -1.4062,0 -16.7343,-5.3437 l -5.2031,0.4218 q 2.6718,2.3906 8.1562,7.1719 -6.1875,-2.6719 -20.3906,-2.6719 -8.8594,0 -12.2344,0.9844 3.9375,1.125 10.5469,5.625 -4.7813,-2.1094 -13.3594,-2.1094 -10.6875,0 -15.4687,4.0782 2.8124,0 8.6406,-0.3438 5.8437,-0.3594 8.7968,-0.3594 9.8438,0 22.5,4.0782 -6.0468,0 -16.5937,3.7968 26.7187,1.5469 40.3594,8.4375 -5.3438,0.2813 -13.7813,2.6719 7.7344,1.8281 15.4688,3.7969 7.1718,2.5312 10.4062,11.6719 -5.0625,-1.6876 -10.2656,-3.5157 l -0.7031,0.2813 q 18.1406,17.5781 17.7187,24.0468 -1.2656,0 -2.9531,-0.9843 l -0.8437,0.8437 q 0,2.25 0.8437,6.6094 0.8437,4.3594 0.8437,6.4688 0,1.6874 -0.1406,4.9218 -0.1406,3.2344 -0.1406,4.6406 -4.3594,-11.1093 -12.7969,-19.6874 -1.2656,1.5468 -2.25,5.4843 -2.8125,-4.3593 -5.3437,-11.6719 -1.9688,-6.0468 -4.0782,-12.0937 -1.5468,3.2344 -2.6718,9.9844 -5.3438,-13.7813 -16.0313,-23.9063 1.125,3.375 3.375,10.2656 -21.2343,-19.5468 -25.875,-19.2656 11.8125,9.2813 19.8281,20.6719 -5.7656,-3.6563 -8.1562,-3.6563 -0.7031,0 -1.125,0.1407 22.7812,16.7343 25.875,28.9687 -3.7969,-2.6718 -6.3281,-2.6718 -0.5625,0 -5.2031,0.4218 10.9687,13.2188 12.0937,23.625 -2.3906,-0.8437 -7.875,-5.2031 0.2813,2.6719 1.6875,10.2656 1.2656,6.6094 1.2656,10.4063 0,5.2031 -1.2656,10.8281 -1.5469,-2.8125 -3.375,-5.4844 -3.2344,8.8594 -11.8125,25.4531 0.5625,-3.0937 0.5625,-7.0312 0,-10.2656 -3.7969,-18.4219 -0.7031,0.5625 -5.0625,6.6094 -0.7031,-4.0781 -0.7031,-3.375 0,-3.5156 2.5313,-12.0937 2.5312,-8.5782 2.5312,-14.4844 -0.9844,0.4218 -6.0469,3.9375 v -21.6563 q -3.2343,2.1094 -4.2187,4.5 l -9.5625,-33.1875 q -2.6719,2.3907 -3.2344,8.2969 -2.25,-7.3125 -4.5,-14.7656 -2.9531,-9 -6.75,-13.5 h -1.4063 q -0.8437,0.4218 -0.8437,1.6875 0,-0.9844 3.0937,9 16.1719,52.3125 16.1719,89.8593 0,21.7969 -3.7969,37.8282 -0.2812,1.4062 -3.5156,10.8281 -2.5312,7.875 -2.5312,9.9844 0,2.9531 2.8125,5.3437 2.3906,1.8282 4.9219,3.7969 -8.7188,3.9375 -17.1563,3.9375 -6.75,0 -21.6563,-5.0625 6.4688,-3.2344 8.7188,-6.4687 17.8594,-26.5782 17.8594,-74.1094 0,-40.5 -9.1406,-58.3594 -1.2657,2.3906 -2.6719,4.9219 -1.125,1.6875 -6.1875,1.6875 -10.125,0 -10.125,-12.0938 0,-3.6562 1.125,-7.875 -6.4688,3.6563 -11.8125,11.6719 -4.5,6.8906 -9.1407,13.7813 0,-2.1094 -1.125,-7.7344 -2.3906,8.4375 -8.1562,24.8906 -2.1094,-0.8438 -3.6562,-3.7969 -1.8282,-3.5156 -2.9532,-4.5 v 33.3281 q -2.25,-2.25 -6.1875,-8.8593 -0.4219,3.375 -2.9531,14.0625 -2.1094,8.5781 -2.1094,14.0625 0,1.5469 0.1406,3.0937 -2.3906,-9.1406 -7.3124,-27.4218 -3.2344,5.2031 -4.5,9.1406 -0.5626,-6.6094 -0.7032,-5.7656 l 5.625,-27.8438 h -0.7031 q -2.25,0 -6.4687,3.9375 2.25,-11.1094 17.0156,-25.0313 l -0.7032,-0.4218 -12.5156,4.3594 q 6.0469,-7.875 15.4688,-14.2032 8.8594,-5.4844 17.7187,-10.9687 v 0 l -0.4219,-0.7031 q -5.0624,0.5624 -12.5156,2.5312 4.9219,-4.3594 15.0469,-8.5781 11.8125,-4.6407 15.75,-7.3125 2.3906,-1.5469 3.2344,-4.0782 l -0.7031,-0.2812 q -8.7188,0 -19.5469,5.2031 -9.1407,4.7813 -18.2813,9.5625 0.5625,-0.8437 4.2188,-7.1718 -8.8594,5.9062 -19.8282,15.0468 0.2813,-4.6406 0.2813,-4.2187 0,-1.2657 -0.2813,-2.3907 -3.5156,1.4063 -8.2968,9.1407 -5.0625,8.2969 -8.5782,10.2656 -0.5624,-6.1875 -0.9843,-6.1875 -3.5157,0 -10.4063,7.1719 -6.0468,6.1875 -8.2968,10.5469 v -1.9688 q 0,-10.2656 8.1562,-18.5625 -1.2656,0 -3.2344,1.4063 -2.3906,1.6874 -3.375,1.9687 1.5469,-6.3281 8.8594,-12.375 11.8125,-9.7031 12.0938,-9.9844 -0.9844,-0.5625 -2.25,-0.5625 -0.8438,0 -7.1719,1.2656 5.0625,-6.1874 12.9375,-8.5781 7.3125,-2.25 14.7656,-4.5 v -0.2812 q -5.4844,-1.125 -8.2969,-1.125 8.0157,-4.0781 17.1563,-4.7813 8.8594,-0.1406 17.7187,-0.4218 -3.2343,-2.6719 -6.0469,-2.6719 1.9688,-0.1407 2.3907,-0.1407 7.1719,0 19.6875,3.2344 13.5,3.5156 19.5468,3.9375 0.9844,-0.5625 0.9844,-1.6875 0,-4.6406 -13.7812,-9 -10.5469,-3.375 -18.2813,-4.0781 3.9375,-0.2813 11.5313,-1.6875 -6.0469,-2.8125 -15.75,-4.6406 -15.75,-2.9532 -16.3125,-3.0938 3.6562,-0.7031 9.4219,-2.6718 2.5312,0.1406 -14.2032,0.1406 -7.1718,0 -11.25,-1.8282 1.9688,-1.2656 6.0469,-3.375 L 59.7656,193.5 q -5.9062,0 -27.8437,6.4688 l 3.9375,-2.9532 -0.4219,-0.8437 h -4.5 q -9.4219,0 -19.4063,0.9843 6.8907,-4.9218 20.3907,-10.5468 -1.9688,-0.2813 -6.0469,-1.125 8.2969,-4.2188 18.1406,-4.2188 2.1094,0 6.4688,0.1406 4.3594,0.1407 6.4687,0.1407 -1.4062,-2.3907 -4.5,-4.3594 h 1.9688 q 6.1875,0 19.2656,4.7813 0.1406,-0.2813 0.1406,-0.8438 0,-1.2656 -0.8437,-3.7969 16.4531,3.375 28.9687,14.4844 0.4219,-0.4219 0.4219,-1.2656 0,-1.5469 -1.6875,-3.5157 9,5.9063 16.3125,16.1719 6.3281,9.5625 12.6562,19.125 1.125,-3.2343 1.125,-9.1406 0,-3.2344 -0.3593,-9.7656 -0.3438,-6.5469 -0.3438,-9.7813 0,-9.5625 4.6407,-13.9218 0,3.7968 1.125,6.0468 0.7031,-1.125 3.7968,-11.8125 2.5313,-8.2969 5.7656,-9.7031 0,1.5469 -0.5624,6.75 l 0.9843,0.9844 q 3.5157,-5.2032 7.0313,-10.2656 4.9218,-6.8907 9.1406,-6.8907 L 162.4219,162 q 10.5469,-9.9844 19.2656,-9.9844 0.2813,0 1.9687,0.2813 -1.4062,0.1406 -2.6718,1.8281 l 0.4218,0.4219 q 5.7657,0.1406 11.3907,0.2812 6.6093,0.4219 11.1093,2.5313 -4.2187,0 -21.375,5.0625 0.2813,1.2656 2.3907,1.5469 1.5469,0.2812 3.2343,0.4218 -1.5468,2.3906 -9.2812,3.9375 -5.3438,0.8438 -10.6875,1.6875 3.9375,2.9532 7.7344,4.3594 -4.7813,1.125 -9.8438,2.25 -5.0625,1.125 -8.0156,5.2031 v 0.7031 q 4.9219,-1.6874 7.875,-1.6874 h 1.125 l -18.8437,17.8593 q 3.0937,0 6.8906,-1.6875 -13.3594,11.5313 -17.4375,23.9063 v 0.1406 l 0.2812,0.7031 q 7.0313,-9.1406 14.0625,-18.2812 8.0156,-8.8594 19.9688,-10.9688 -2.6719,6.6094 -2.6719,6.4688 0,0.7031 0.2813,1.2656 6.3281,-4.2188 12.5156,-8.4375 6.1875,-3.6563 14.9062,-3.6563 -4.0781,1.6876 -6.75,8.2969 3.5156,-0.1406 10.4063,-2.3906 6.8906,-2.25 10.6875,-2.25 3.5156,0 8.8594,1.9687 -5.2032,0.1407 -8.2969,4.3594 10.9687,0.7032 13.9219,1.125 9.1406,1.5469 12.0937,5.4844 -1.8281,0.1406 -5.4844,0.7031 8.0157,5.3438 19.8281,16.7344 z"
         stroke="none"
         id="path825"
         style="fill:#ffffff;fill-opacity:1" />
    </g>
  </g>
</svg>
