<?xml version="1.0" encoding="UTF-8" standalone="no"?>
<!-- Created with Inkscape (http://www.inkscape.org/) -->

<svg
   width="293.83994"
   height="293.83994"
   viewBox="0 0 77.745148 77.745148"
   version="1.1"
   id="svg5"
   inkscape:version="1.1 (c68e22c387, 2021-05-23)"
   sodipodi:docname="favicon.svg"
   inkscape:export-filename="C:\Users\Justin\Desktop\Rastergrafik2.png"
   inkscape:export-xdpi="167.27475"
   inkscape:export-ydpi="167.27475"
   xmlns:inkscape="http://www.inkscape.org/namespaces/inkscape"
   xmlns:sodipodi="http://sodipodi.sourceforge.net/DTD/sodipodi-0.dtd"
   xmlns="http://www.w3.org/2000/svg"
   xmlns:svg="http://www.w3.org/2000/svg">
  <sodipodi:namedview
     id="namedview7"
     pagecolor="#ffffff"
     bordercolor="#666666"
     borderopacity="1.0"
     inkscape:pageshadow="2"
     inkscape:pageopacity="0.0"
     inkscape:pagecheckerboard="0"
     inkscape:document-units="mm"
     showgrid="false"
     fit-margin-top="0"
     fit-margin-left="0"
     fit-margin-right="0"
     fit-margin-bottom="0"
     inkscape:zoom="1.4681257"
     inkscape:cx="126.35158"
     inkscape:cy="157.00291"
     inkscape:window-width="1920"
     inkscape:window-height="1009"
     inkscape:window-x="1912"
     inkscape:window-y="-8"
     inkscape:window-maximized="1"
     inkscape:current-layer="layer1"
     units="px" />
  <defs
     id="defs2" />
  <g
     inkscape:label="Ebene 1"
     inkscape:groupmode="layer"
     id="layer1"
     transform="translate(-23.788836,-3.6043687)">
    <rect
       style="fill:#27a8be;fill-opacity:1;stroke-width:0.0111132"
       id="rect977"
       width="77.745148"
       height="77.745148"
       x="23.788836"
       y="3.6043687" />
    <path
       d="m 94.565237,27.309213 q -1.30223,0 -3.36929,-0.81854 -2.06293,-0.81857 -2.8815,-0.81857 h -0.18602 q 0.66974,0.81857 1.15342,2.23242 -1.30225,-1.00459 -2.64171,-2.04639 -1.97196,-1.45106 -2.6789,-1.45106 h -0.70694 l -0.1116,0.14881 q 0,0.74416 0.59531,1.56271 h -0.18606 q -0.37205,0 -4.42761,-1.41386 l -1.37666,0.1116 q 0.70692,0.63252 2.158,1.89757 -1.63711,-0.70694 -5.39501,-0.70694 -2.34405,0 -3.23702,0.26045 1.04179,0.29766 2.79053,1.48828 -1.26505,-0.55811 -3.53467,-0.55811 -2.82774,0 -4.09276,1.07903 0.74411,0 2.28616,-0.091 1.54614,-0.0951 2.32748,-0.0951 2.60451,0 5.95313,1.07902 -1.59989,0 -4.39042,1.00457 7.06932,0.40928 10.67842,2.23242 -1.41388,0.0744 -3.6463,0.70694 2.0464,0.48369 4.09279,1.0046 1.89754,0.66971 2.75331,3.08819 -1.33946,-0.44651 -2.71611,-0.9302 l -0.18603,0.0744 q 4.7997,4.65087 4.68807,6.36238 -0.33485,0 -0.78134,-0.26042 l -0.22323,0.22322 q 0,0.59532 0.22323,1.74874 0.22323,1.15343 0.22323,1.71154 0,0.44646 -0.0372,1.30222 -0.0372,0.85577 -0.0372,1.22783 -1.15342,-2.93934 -3.38584,-5.20896 -0.33486,0.40926 -0.59532,1.45106 -0.74414,-1.1534 -1.41385,-3.08819 -0.52091,-1.59989 -1.07902,-3.1998 -0.40926,0.85577 -0.70692,2.64171 -1.41388,-3.6463 -4.24161,-6.32521 0.29765,0.89297 0.89297,2.71611 -5.61825,-5.17176 -6.8461,-5.09736 3.12539,2.45568 5.24619,5.46944 -1.52549,-0.96739 -2.158,-0.96739 -0.18603,0 -0.29765,0.0372 6.02752,4.42761 6.84609,7.66463 -1.0046,-0.70691 -1.67431,-0.70691 -0.14883,0 -1.37665,0.1116 2.90213,3.49747 3.19979,6.25078 -0.63252,-0.22323 -2.0836,-1.37665 0.0744,0.70694 0.44649,2.7161 0.33485,1.74874 0.33485,2.75334 0,1.37665 -0.33485,2.86493 -0.40929,-0.74414 -0.89297,-1.45108 -0.85577,2.34405 -3.12539,6.73447 0.14883,-0.81855 0.14883,-1.86034 0,-2.71611 -1.0046,-4.87413 -0.18603,0.14883 -1.33945,1.74874 -0.18603,-1.079 -0.18603,-0.89297 0,-0.93017 0.66974,-3.19979 0.66971,-2.26965 0.66971,-3.83233 -0.26045,0.1116 -1.59991,1.04179 v -5.72989 q -0.85574,0.55811 -1.11619,1.19062 l -2.53008,-8.78086 q -0.70694,0.63254 -0.85577,2.19522 -0.59531,-1.93476 -1.19063,-3.90673 -0.78134,-2.38125 -1.78593,-3.57187 h -0.37209 q -0.22323,0.1116 -0.22323,0.44648 0,-0.26045 0.81855,2.38125 4.27881,13.84102 4.27881,23.77527 0,5.7671 -1.0046,10.00872 -0.0744,0.37205 -0.93017,2.86493 -0.66971,2.08359 -0.66971,2.64171 0,0.78134 0.74414,1.41385 0.63252,0.48371 1.30225,1.0046 -2.30684,1.04179 -4.53927,1.04179 -1.78593,0 -5.72989,-1.33945 1.71153,-0.85577 2.30685,-1.71151 4.7253,-7.03215 4.7253,-19.60811 0,-10.71563 -2.41845,-15.44093 -0.33489,0.63252 -0.70694,1.30226 -0.29766,0.44648 -1.63711,0.44648 -2.67891,0 -2.67891,-3.19982 0,-0.96737 0.29766,-2.08359 -1.71154,0.9674 -3.12539,3.08819 -1.19063,1.82314 -2.41848,3.6463 0,-0.55811 -0.29766,-2.04639 -0.63251,2.23242 -2.15799,6.58564 -0.55811,-0.22326 -0.96737,-1.0046 -0.48371,-0.93017 -0.78137,-1.19062 v 8.81806 q -0.59531,-0.59532 -1.63711,-2.34403 -0.11163,0.89297 -0.78134,3.7207 -0.55811,2.26963 -0.55811,3.72071 0,0.40928 0.0372,0.81854 -0.63251,-2.41845 -1.93474,-7.25535 -0.85577,1.37665 -1.19063,2.41845 -0.14885,-1.74874 -0.18605,-1.52548 l 1.48828,-7.36701 h -0.18603 q -0.59531,0 -1.71151,1.0418 0.59531,-2.93936 4.50205,-6.62287 l -0.18606,-0.1116 -3.31142,1.15343 q 1.59991,-2.0836 4.09279,-3.75793 2.34405,-1.45108 4.68807,-2.90214 v 0 l -0.11163,-0.18603 q -1.33942,0.14881 -3.31142,0.66972 1.30226,-1.15343 3.98116,-2.26963 3.12539,-1.22785 4.16719,-1.93476 0.63251,-0.40928 0.85577,-1.07902 l -0.18603,-0.0744 q -2.30685,0 -5.17178,1.37665 -2.41848,1.26505 -4.83693,2.53008 0.14883,-0.22323 1.11622,-1.89754 -2.34405,1.56268 -5.24621,3.98113 0.0744,-1.22782 0.0744,-1.1162 0,-0.33488 -0.0744,-0.63254 -0.93017,0.37209 -2.195185,2.41848 -1.33946,2.19522 -2.26965,2.71611 -0.1488,-1.63711 -0.26043,-1.63711 -0.9302,0 -2.75333,1.89756 -1.59989,1.63711 -2.1952,2.79054 v -0.52091 q 0,-2.71611 2.158,-4.91133 -0.33486,0 -0.85577,0.37208 -0.63252,0.44646 -0.89297,0.52089 0.40928,-1.67431 2.34405,-3.27422 3.12539,-2.56728 3.19982,-2.64171 -0.26046,-0.14883 -0.59532,-0.14883 -0.22325,0 -1.89756,0.33486 1.33945,-1.63708 3.42304,-2.26962 1.934765,-0.59531 3.906735,-1.19063 v -0.0744 q -1.45108,-0.29765 -2.19523,-0.29765 2.12083,-1.079 4.53928,-1.26506 2.34405,-0.0372 4.68807,-0.1116 -0.85574,-0.70694 -1.59991,-0.70694 0.52091,-0.0372 0.63254,-0.0372 1.89756,0 5.20898,0.85577 3.57188,0.93017 5.17176,1.0418 0.26046,-0.14883 0.26046,-0.44649 0,-1.22782 -3.64628,-2.38125 -2.79053,-0.89297 -4.83693,-1.07899 1.0418,-0.0744 3.05099,-0.44649 -1.59991,-0.74414 -4.16718,-1.22782 -4.16719,-0.78137 -4.31602,-0.81857 0.96737,-0.18603 2.49288,-0.70692 0.66971,0.0372 -3.75793,0.0372 -1.89754,0 -2.97656,-0.48371 0.52091,-0.33485 1.5999,-0.89297 l -0.11162,-0.0744 q -1.56269,0 -7.366975,1.71154 l 1.0418,-0.78137 -0.11163,-0.22323 h -1.19063 q -2.49288,0 -5.13458,0.26043 1.82316,-1.30223 5.39504,-2.79051 -0.52091,-0.0744 -1.59991,-0.29766 2.19522,-1.11622 4.7997,-1.11622 0.55811,0 1.71154,0.0372 1.153415,0.0372 1.711505,0.0372 -0.37206,-0.632541 -1.19063,-1.15343 h 0.52091 q 1.63711,0 5.09736,1.26505 0.0372,-0.0744 0.0372,-0.22325 0,-0.33486 -0.22323,-1.0046 4.35322,0.89297 7.66464,3.83233 0.11162,-0.11163 0.11162,-0.33486 0,-0.40928 -0.44648,-0.93019 2.38125,1.56271 4.31601,4.27881 1.67431,2.53008 3.34862,5.06016 0.29766,-0.85574 0.29766,-2.41845 0,-0.85577 -0.0951,-2.58381 -0.091,-1.73221 -0.091,-2.58797 0,-2.53008 1.22785,-3.68348 0,1.00457 0.29766,1.59988 0.18603,-0.29765 1.00457,-3.12539 0.66974,-2.19522 1.52548,-2.56728 0,0.40929 -0.1488,1.78594 l 0.26043,0.26046 q 0.93019,-1.37668 1.86036,-2.71611 1.30223,-1.8231602 2.41845,-1.8231602 l 0.11163,1.8975602 q 2.79054,-2.6417002 5.09736,-2.6417002 0.0744,0 0.52088,0.0744 -0.37205,0.0372 -0.70691,0.48369 l 0.1116,0.11163 q 1.52551,0.0372 3.01379,0.0744 1.74871,0.11162 2.93934,0.6697402 -1.1162,0 -5.65547,1.33945 0.0744,0.33486 0.63254,0.40928 0.40928,0.0744 0.85574,0.1116 -0.40926,0.63252 -2.45565,1.0418 -1.41388,0.22326 -2.82774,0.44649 1.0418,0.78136 2.0464,1.15342 -1.26505,0.29766 -2.60451,0.59531 -1.33945,0.29766 -2.12079,1.37666 v 0.18602 q 1.30225,-0.44645 2.08359,-0.44645 h 0.29766 l -4.98573,4.72527 q 0.81854,0 1.82314,-0.44648 -3.53468,3.05098 -4.61368,6.3252 v 0.0372 l 0.0744,0.18603 q 1.86037,-2.41845 3.72071,-4.8369 2.12079,-2.34405 5.28341,-2.90216 -0.70694,1.74874 -0.70694,1.71154 0,0.18603 0.0744,0.33485 1.67431,-1.11622 3.31142,-2.23242 1.63711,-0.96739 3.94393,-0.96739 -1.079,0.44651 -1.78594,2.19522 0.93017,-0.0372 2.75334,-0.63252 1.82313,-0.59531 2.82773,-0.59531 0.93017,0 2.34405,0.52089 -1.37668,0.0372 -2.19522,1.15342 2.90213,0.18606 3.6835,0.29766 2.41845,0.40928 3.19979,1.45108 -0.48368,0.0372 -1.45108,0.18603 2.12082,1.41388 5.24619,4.42764 z"
       stroke="none"
       id="path825"
       style="font-style:normal;font-weight:normal;font-size:12px;font-family:Dialog;color-interpolation:auto;fill:#ffffff;fill-opacity:1;stroke-width:0.264583;stroke-linecap:square;stroke-linejoin:miter;stroke-miterlimit:10;stroke-dasharray:none;stroke-dashoffset:0;stroke-opacity:1;color-rendering:auto;image-rendering:auto;shape-rendering:auto;text-rendering:auto" />
  </g>
</svg>
